<?xml version="1.0" encoding="UTF-8"?>
<!DOCTYPE svg PUBLIC "-//W3C//DTD SVG 1.1//EN" "http://www.w3.org/Graphics/SVG/1.1/DTD/svg11.dtd">
<!-- Creator: CorelDRAW 2018 (64-Bit) -->
<svg xmlns="http://www.w3.org/2000/svg" xml:space="preserve" width="17.5815mm" height="18.6425mm" version="1.1" style="shape-rendering:geometricPrecision; text-rendering:geometricPrecision; image-rendering:optimizeQuality; fill-rule:evenodd; clip-rule:evenodd"
viewBox="0 0 208.71 221.31"
 xmlns:xlink="http://www.w3.org/1999/xlink">
 <defs>
  <style type="text/css">
   <![CDATA[
    .fil0 {fill:#FEFEFE;fill-rule:nonzero}
   ]]>
  </style>
 </defs>
 <g id="Слой_x0020_1">
  <metadata id="CorelCorpID_0Corel-Layer"/>
  <path class="fil0" d="M104.36 0c28.82,0 54.91,11.68 73.79,30.57 18.88,18.88 30.56,44.98 30.56,73.79 0,28.66 -11.55,54.62 -30.25,73.47l10.68 19.93c0.17,-0.01 0.35,-0.01 0.52,-0.01 6.51,0 11.78,5.27 11.78,11.78 0,6.51 -5.27,11.78 -11.78,11.78 -4.85,0 -9.01,-2.93 -10.82,-7.11l-63.95 0c-1.81,4.19 -5.97,7.11 -10.82,7.11 -4.85,0 -9.01,-2.93 -10.82,-7.11l-68.67 0c-1.81,4.19 -5.97,7.11 -10.82,7.11 -6.51,0 -11.78,-5.27 -11.78,-11.78 0,-6.51 5.27,-11.78 11.78,-11.78 2.54,0 4.89,0.8 6.82,2.17l11.08 -20.69c-0.37,-0.36 -0.74,-0.72 -1.1,-1.08 -18.88,-18.88 -30.57,-44.97 -30.57,-73.79 0,-28.82 11.68,-54.91 30.56,-73.79 18.88,-18.88 44.98,-30.56 73.79,-30.56zm73.59 208.26c0.39,-3.67 2.47,-6.83 5.44,-8.7l-9.37 -17.5c-15.81,14.19 -35.98,23.61 -58.26,26.03l0.02 0.17 62.17 0zm-73.88 -10.51c3.81,0 7.2,1.81 9.35,4.61 22.19,-2.02 42.25,-11.41 57.71,-25.7l-24.52 -45.77 -41.17 -76.86 -66.4 123.95c15.13,13.43 34.43,22.27 55.72,24.33 2.15,-2.78 5.52,-4.56 9.31,-4.56zm-11.71 10.51l0.03 -0.23c-21.36,-2.44 -40.77,-11.33 -56.22,-24.68l-11.56 21.57c0.44,1.04 0.74,2.16 0.86,3.33l66.88 0zm15.69 -161.87l67.47 125.96c16.89,-17.67 27.26,-41.62 27.26,-67.99 0,-27.18 -11.02,-51.78 -28.83,-69.59 -17.81,-17.81 -42.42,-28.83 -69.59,-28.83 -27.18,0 -51.79,11.02 -69.6,28.83 -17.81,17.81 -28.83,42.42 -28.83,69.6 0,27.09 10.95,51.62 28.65,69.42 23.61,-44.09 47.24,-88.17 70.85,-132.26l2.61 4.87z"/>
 </g>
</svg>
